<?xml version="1.0" encoding="UTF-8" standalone="no"?>
<!-- Created by Flowgorithm 2.30.3 (http://flowgorithm.org) -->

<svg xmlns:svg="http://www.w3.org/2000/svg" xmlns="http://www.w3.org/2000/svg" version="1.1" width="1525" height="4375">
	<rect x="0" y="0" width="1525" height="4375" fill="#FFFFFF"/>
	<g>
		<polyline fill="none" stroke="#404040" stroke-width="6" stroke-dasharray="none" points="775,200 775,261"/>
		<polygon fill="#404040" stroke="none" points="775,275 788,250 761,250"/>
		<polyline fill="none" stroke="#404040" stroke-width="6" stroke-dasharray="none" points="775,4100 775,4161"/>
		<polygon fill="#404040" stroke="none" points="775,4175 788,4150 761,4150"/>
		<g>
			<path fill="#F0D0FF" stroke="#9070A0" stroke-width="3" stroke-dasharray="none" d="M 675,100 A 50,50 0 0,0 675,200 L 875,200 A 50,50 0 0,0 875,100 Z"/>
			<text x="775" y="115" fill="#000000" font-family="Arial" font-size="32pt" text-anchor="middle" direction="ltr">
				<tspan x="775" dy="50" unicode-bidi="embed">Main</tspan>
			</text>
		</g>
		<g>
			<path fill="#F0D0FF" stroke="#9070A0" stroke-width="3" stroke-dasharray="none" d="M 675,4175 A 50,50 0 0,0 675,4275 L 875,4275 A 50,50 0 0,0 875,4175 Z"/>
			<text x="775" y="4190" fill="#000000" font-family="Arial" font-size="32pt" text-anchor="middle" direction="ltr">
				<tspan x="775" dy="50" unicode-bidi="embed">End</tspan>
			</text>
		</g>
		<g>
			<polyline fill="none" stroke="#404040" stroke-width="6" stroke-dasharray="none" points="775,400 775,461"/>
			<polygon fill="#404040" stroke="none" points="775,475 788,450 761,450"/>
			<polyline fill="none" stroke="#404040" stroke-width="6" stroke-dasharray="none" points="775,600 775,661"/>
			<polygon fill="#404040" stroke="none" points="775,675 788,650 761,650"/>
			<polyline fill="none" stroke="#404040" stroke-width="6" stroke-dasharray="none" points="775,850 775,911"/>
			<polygon fill="#404040" stroke="none" points="775,925 788,900 761,900"/>
			<polyline fill="none" stroke="#404040" stroke-width="6" stroke-dasharray="none" points="775,1025 775,1086"/>
			<polygon fill="#404040" stroke="none" points="775,1100 788,1075 761,1075"/>
			<polyline fill="none" stroke="#404040" stroke-width="6" stroke-dasharray="none" points="775,1200 775,1261"/>
			<polygon fill="#404040" stroke="none" points="775,1275 788,1250 761,1250"/>
			<polyline fill="none" stroke="#404040" stroke-width="6" stroke-dasharray="none" points="775,1375 775,1436"/>
			<polygon fill="#404040" stroke="none" points="775,1450 788,1425 761,1425"/>
			<polyline fill="none" stroke="#404040" stroke-width="6" stroke-dasharray="none" points="775,1600 775,1661"/>
			<polygon fill="#404040" stroke="none" points="775,1675 788,1650 761,1650"/>
			<polyline fill="none" stroke="#404040" stroke-width="6" stroke-dasharray="none" points="775,2250 775,2311"/>
			<polygon fill="#404040" stroke="none" points="775,2325 788,2300 761,2300"/>
			<polyline fill="none" stroke="#404040" stroke-width="6" stroke-dasharray="none" points="775,2475 775,2536"/>
			<polygon fill="#404040" stroke="none" points="775,2550 788,2525 761,2525"/>
			<polyline fill="none" stroke="#404040" stroke-width="6" stroke-dasharray="none" points="775,2650 775,2711"/>
			<polygon fill="#404040" stroke="none" points="775,2725 788,2700 761,2700"/>
			<polyline fill="none" stroke="#404040" stroke-width="6" stroke-dasharray="none" points="775,2825 775,2886"/>
			<polygon fill="#404040" stroke="none" points="775,2900 788,2875 761,2875"/>
			<polyline fill="none" stroke="#404040" stroke-width="6" stroke-dasharray="none" points="775,3000 775,3061"/>
			<polygon fill="#404040" stroke="none" points="775,3075 788,3050 761,3050"/>
			<polyline fill="none" stroke="#404040" stroke-width="6" stroke-dasharray="none" points="775,3175 775,3236"/>
			<polygon fill="#404040" stroke="none" points="775,3250 788,3225 761,3225"/>
			<polyline fill="none" stroke="#404040" stroke-width="6" stroke-dasharray="none" points="775,3350 775,3411"/>
			<polygon fill="#404040" stroke="none" points="775,3425 788,3400 761,3400"/>
			<polyline fill="none" stroke="#404040" stroke-width="6" stroke-dasharray="none" points="775,3525 775,3586"/>
			<polygon fill="#404040" stroke="none" points="775,3600 788,3575 761,3575"/>
			<polyline fill="none" stroke="#404040" stroke-width="6" stroke-dasharray="none" points="775,3700 775,3761"/>
			<polygon fill="#404040" stroke="none" points="775,3775 788,3750 761,3750"/>
			<polyline fill="none" stroke="#404040" stroke-width="6" stroke-dasharray="none" points="775,3925 775,3986"/>
			<polygon fill="#404040" stroke="none" points="775,4000 788,3975 761,3975"/>
			<g>
				<path fill="#FFFFD0" stroke="#A0A070" stroke-width="3" stroke-dasharray="none" d="M 575,275 L 575,400 L 975,400 L 975,275 Z"/>
				<polyline fill="none" stroke="#A0A070" stroke-width="3" stroke-dasharray="none" points="575,300 975,300"/>
				<polyline fill="none" stroke="#A0A070" stroke-width="3" stroke-dasharray="none" points="600,275 600,400"/>
				<text x="787" y="315" fill="#000000" font-family="Arial" font-size="32pt" text-anchor="middle" direction="ltr">
					<tspan x="787" dy="50" unicode-bidi="embed">String namaobat</tspan>
				</text>
			</g>
			<g>
				<path fill="#FFFFD0" stroke="#A0A070" stroke-width="3" stroke-dasharray="none" d="M 525,475 L 525,600 L 1025,600 L 1025,475 Z"/>
				<polyline fill="none" stroke="#A0A070" stroke-width="3" stroke-dasharray="none" points="525,500 1025,500"/>
				<polyline fill="none" stroke="#A0A070" stroke-width="3" stroke-dasharray="none" points="550,475 550,600"/>
				<text x="787" y="515" fill="#000000" font-family="Arial" font-size="32pt" text-anchor="middle" direction="ltr">
					<tspan x="787" dy="50" unicode-bidi="embed">Integer banyakkaplet</tspan>
				</text>
			</g>
			<g>
				<path fill="#FFFFD0" stroke="#A0A070" stroke-width="3" stroke-dasharray="none" d="M 500,675 L 500,850 L 1050,850 L 1050,675 Z"/>
				<polyline fill="none" stroke="#A0A070" stroke-width="3" stroke-dasharray="none" points="500,700 1050,700"/>
				<polyline fill="none" stroke="#A0A070" stroke-width="3" stroke-dasharray="none" points="525,675 525,850"/>
				<text x="787" y="715" fill="#000000" font-family="Arial" font-size="32pt" text-anchor="middle" direction="ltr">
					<tspan x="787" dy="50" unicode-bidi="embed">Real harga, potongan,</tspan>
					<tspan x="787" dy="50" unicode-bidi="embed"> totalharga</tspan>
				</text>
			</g>
			<g>
				<path fill="#D0FFD0" stroke="#70A070" stroke-width="3" stroke-dasharray="none" d="M 550,925 L 500,1025 L 1000,1025 L 1050,925 Z"/>
				<text x="775" y="940" fill="#000000" font-family="Arial" font-size="32pt" text-anchor="middle" direction="ltr">
					<tspan x="775" dy="50" unicode-bidi="embed">Output &quot;namaobat:&quot;</tspan>
				</text>
			</g>
			<g>
				<path fill="#D0E0FF" stroke="#7080A0" stroke-width="3" stroke-dasharray="none" d="M 600,1100 L 550,1200 L 950,1200 L 1000,1100 Z"/>
				<text x="775" y="1115" fill="#000000" font-family="Arial" font-size="32pt" text-anchor="middle" direction="ltr">
					<tspan x="775" dy="50" unicode-bidi="embed">Input namaobat</tspan>
				</text>
			</g>
			<g>
				<path fill="#D0E0FF" stroke="#7080A0" stroke-width="3" stroke-dasharray="none" d="M 550,1275 L 500,1375 L 1000,1375 L 1050,1275 Z"/>
				<text x="775" y="1290" fill="#000000" font-family="Arial" font-size="32pt" text-anchor="middle" direction="ltr">
					<tspan x="775" dy="50" unicode-bidi="embed">Input banyakkaplet</tspan>
				</text>
			</g>
			<g>
				<path fill="#FFFFD0" stroke="#A0A070" stroke-width="3" stroke-dasharray="none" d="M 525,1450 L 525,1600 L 1025,1600 L 1025,1450 Z"/>
				<text x="775" y="1465" fill="#000000" font-family="Arial" font-size="32pt" text-anchor="middle" direction="ltr">
					<tspan x="775" dy="50" unicode-bidi="embed">harga = banyakkaplet *</tspan>
					<tspan x="775" dy="50" unicode-bidi="embed"> 25000</tspan>
				</text>
			</g>
			<g>
				<polyline fill="none" stroke="#404040" stroke-width="6" stroke-dasharray="none" points="1025,1825 1175,1825 1175,2011"/>
				<polygon fill="#404040" stroke="none" points="1175,2025 1188,2000 1161,2000"/>
				<polyline fill="none" stroke="#404040" stroke-width="6" stroke-dasharray="none" points="1175,2125 1175,2225 813,2225"/>
				<polygon fill="#404040" stroke="none" points="800,2225 824,2238 824,2211"/>
				<polyline fill="none" stroke="#404040" stroke-width="6" stroke-dasharray="none" points="525,1825 350,1825 350,2011"/>
				<polygon fill="#404040" stroke="none" points="350,2025 363,2000 336,2000"/>
				<polyline fill="none" stroke="#404040" stroke-width="6" stroke-dasharray="none" points="350,2125 350,2225 736,2225"/>
				<polygon fill="#404040" stroke="none" points="750,2225 725,2211 725,2238"/>
				<g>
					<path fill="#FFD0D0" stroke="#A07070" stroke-width="3" stroke-dasharray="none" d="M 775,1675 L 500,1825 L 775,1975 L 1050,1825 Z"/>
					<text x="775" y="1790" fill="#000000" font-family="Arial" font-size="32pt" text-anchor="middle" direction="ltr">
						<tspan x="775" dy="50" unicode-bidi="embed">banyakkaplet &lt;= 50</tspan>
					</text>
				</g>
				<g>
					<path fill="#FFFFD0" stroke="#A0A070" stroke-width="3" stroke-dasharray="none" d="M 925,2025 L 925,2125 L 1425,2125 L 1425,2025 Z"/>
					<text x="1175" y="2040" fill="#000000" font-family="Arial" font-size="32pt" text-anchor="middle" direction="ltr">
						<tspan x="1175" dy="50" unicode-bidi="embed">potongan = harga*0.05</tspan>
					</text>
				</g>
				<g>
					<path fill="#FFFFD0" stroke="#A0A070" stroke-width="3" stroke-dasharray="none" d="M 100,2025 L 100,2125 L 600,2125 L 600,2025 Z"/>
					<text x="350" y="2040" fill="#000000" font-family="Arial" font-size="32pt" text-anchor="middle" direction="ltr">
						<tspan x="350" dy="50" unicode-bidi="embed">potongan = harga*0.10</tspan>
					</text>
				</g>
				<ellipse cx="775" cy="2225" rx="25" ry="25" fill="#FFD0D0" stroke="#A07070" stroke-width="3"/>
				<text x="1125" y="1740" fill="#000000" font-family="Arial" font-size="32pt" text-anchor="middle" direction="ltr">
					<tspan x="1125" dy="50" unicode-bidi="embed">True</tspan>
				</text>
				<text x="412" y="1740" fill="#000000" font-family="Arial" font-size="32pt" text-anchor="middle" direction="ltr">
					<tspan x="412" dy="50" unicode-bidi="embed">False</tspan>
				</text>
			</g>
			<g>
				<path fill="#FFFFD0" stroke="#A0A070" stroke-width="3" stroke-dasharray="none" d="M 550,2325 L 550,2475 L 1000,2475 L 1000,2325 Z"/>
				<text x="775" y="2340" fill="#000000" font-family="Arial" font-size="32pt" text-anchor="middle" direction="ltr">
					<tspan x="775" dy="50" unicode-bidi="embed">totalharga = harga-</tspan>
					<tspan x="775" dy="50" unicode-bidi="embed">potongan</tspan>
				</text>
			</g>
			<g>
				<path fill="#D0FFD0" stroke="#70A070" stroke-width="3" stroke-dasharray="none" d="M 475,2550 L 425,2650 L 1075,2650 L 1125,2550 Z"/>
				<text x="775" y="2565" fill="#000000" font-family="Arial" font-size="32pt" text-anchor="middle" direction="ltr">
					<tspan x="775" dy="50" unicode-bidi="embed">Output &quot;Hasil Perhitungan&quot;</tspan>
				</text>
			</g>
			<g>
				<path fill="#D0FFD0" stroke="#70A070" stroke-width="3" stroke-dasharray="none" d="M 525,2725 L 475,2825 L 1025,2825 L 1075,2725 Z"/>
				<text x="775" y="2740" fill="#000000" font-family="Arial" font-size="32pt" text-anchor="middle" direction="ltr">
					<tspan x="775" dy="50" unicode-bidi="embed">Output &quot;Nama Obat :&quot;</tspan>
				</text>
			</g>
			<g>
				<path fill="#D0FFD0" stroke="#70A070" stroke-width="3" stroke-dasharray="none" d="M 575,2900 L 525,3000 L 975,3000 L 1025,2900 Z"/>
				<text x="775" y="2915" fill="#000000" font-family="Arial" font-size="32pt" text-anchor="middle" direction="ltr">
					<tspan x="775" dy="50" unicode-bidi="embed">Output namaobat</tspan>
				</text>
			</g>
			<g>
				<path fill="#D0FFD0" stroke="#70A070" stroke-width="3" stroke-dasharray="none" d="M 525,3075 L 475,3175 L 1025,3175 L 1075,3075 Z"/>
				<text x="775" y="3090" fill="#000000" font-family="Arial" font-size="32pt" text-anchor="middle" direction="ltr">
					<tspan x="775" dy="50" unicode-bidi="embed">Output &quot;Banyak Kaplet&quot;</tspan>
				</text>
			</g>
			<g>
				<path fill="#D0FFD0" stroke="#70A070" stroke-width="3" stroke-dasharray="none" d="M 550,3250 L 500,3350 L 1000,3350 L 1050,3250 Z"/>
				<text x="775" y="3265" fill="#000000" font-family="Arial" font-size="32pt" text-anchor="middle" direction="ltr">
					<tspan x="775" dy="50" unicode-bidi="embed">Output banyakkaplet</tspan>
				</text>
			</g>
			<g>
				<path fill="#D0FFD0" stroke="#70A070" stroke-width="3" stroke-dasharray="none" d="M 500,3425 L 450,3525 L 1050,3525 L 1100,3425 Z"/>
				<text x="775" y="3440" fill="#000000" font-family="Arial" font-size="32pt" text-anchor="middle" direction="ltr">
					<tspan x="775" dy="50" unicode-bidi="embed">Output &quot;Total Harga : Rp &quot;</tspan>
				</text>
			</g>
			<g>
				<path fill="#D0FFD0" stroke="#70A070" stroke-width="3" stroke-dasharray="none" d="M 600,3600 L 550,3700 L 950,3700 L 1000,3600 Z"/>
				<text x="775" y="3615" fill="#000000" font-family="Arial" font-size="32pt" text-anchor="middle" direction="ltr">
					<tspan x="775" dy="50" unicode-bidi="embed">Output harga</tspan>
				</text>
			</g>
			<g>
				<path fill="#D0FFD0" stroke="#70A070" stroke-width="3" stroke-dasharray="none" d="M 475,3775 L 400,3925 L 1075,3925 L 1150,3775 Z"/>
				<text x="775" y="3790" fill="#000000" font-family="Arial" font-size="32pt" text-anchor="middle" direction="ltr">
					<tspan x="775" dy="50" unicode-bidi="embed">Output &quot;Total Potongan : Rp</tspan>
					<tspan x="775" dy="50" unicode-bidi="embed"> &quot;</tspan>
				</text>
			</g>
			<g>
				<path fill="#D0FFD0" stroke="#70A070" stroke-width="3" stroke-dasharray="none" d="M 575,4000 L 525,4100 L 975,4100 L 1025,4000 Z"/>
				<text x="775" y="4015" fill="#000000" font-family="Arial" font-size="32pt" text-anchor="middle" direction="ltr">
					<tspan x="775" dy="50" unicode-bidi="embed">Output potongan</tspan>
				</text>
			</g>
		</g>
	</g>
</svg>
